<svg width="126" height="26" viewBox="0 0 126 26" fill="none" xmlns="http://www.w3.org/2000/svg">
<rect width="126" height="26" rx="7" fill="#B9FF66"/>
<path d="M13.66 20.28C11.9533 20.28 10.6 19.8 9.6 18.84C8.6 17.8667 8.1 16.4667 8.1 14.64V11.36C8.1 9.53333 8.6 8.14 9.6 7.18C10.6 6.20667 11.9533 5.72 13.66 5.72C15.34 5.72 16.6333 6.18667 17.54 7.12C18.46 8.05333 18.92 9.32667 18.92 10.94V11.06H16.78V10.88C16.78 9.93333 16.52 9.16 16 8.56C15.4933 7.96 14.7133 7.66 13.66 7.66C12.5933 7.66 11.76 7.98667 11.16 8.64C10.56 9.28 10.26 10.1733 10.26 11.32V14.68C10.26 15.8133 10.56 16.7067 11.16 17.36C11.76 18.0133 12.5933 18.34 13.66 18.34C14.7133 18.34 15.4933 18.04 16 17.44C16.52 16.8267 16.78 16.0533 16.78 15.12V14.78H18.92V15.06C18.92 16.6733 18.46 17.9467 17.54 18.88C16.6333 19.8133 15.34 20.28 13.66 20.28ZM25.9916 20.28C25.0049 20.28 24.1249 20.08 23.3516 19.68C22.5916 19.2667 21.9916 18.68 21.5516 17.92C21.1116 17.16 20.8916 16.26 20.8916 15.22V14.92C20.8916 13.88 21.1116 12.9867 21.5516 12.24C21.9916 11.48 22.5916 10.8933 23.3516 10.48C24.1249 10.0667 25.0049 9.86 25.9916 9.86C26.9782 9.86 27.8582 10.0667 28.6316 10.48C29.4049 10.8933 30.0116 11.48 30.4516 12.24C30.8916 12.9867 31.1116 13.88 31.1116 14.92V15.22C31.1116 16.26 30.8916 17.16 30.4516 17.92C30.0116 18.68 29.4049 19.2667 28.6316 19.68C27.8582 20.08 26.9782 20.28 25.9916 20.28ZM25.9916 18.44C26.8982 18.44 27.6316 18.1533 28.1916 17.58C28.7649 16.9933 29.0516 16.1867 29.0516 15.16V14.98C29.0516 13.9533 28.7716 13.1533 28.2116 12.58C27.6516 11.9933 26.9116 11.7 25.9916 11.7C25.0982 11.7 24.3649 11.9933 23.7916 12.58C23.2316 13.1533 22.9516 13.9533 22.9516 14.98V15.16C22.9516 16.1867 23.2316 16.9933 23.7916 17.58C24.3649 18.1533 25.0982 18.44 25.9916 18.44ZM33.6763 20V10.14H35.6963V11.62H36.0163C36.2029 11.22 36.5363 10.8467 37.0163 10.5C37.4963 10.1533 38.2096 9.98 39.1563 9.98C39.9029 9.98 40.5629 10.1467 41.1363 10.48C41.7229 10.8133 42.1829 11.2867 42.5163 11.9C42.8496 12.5 43.0163 13.2267 43.0163 14.08V20H40.9563V14.24C40.9563 13.3867 40.7429 12.76 40.3163 12.36C39.8896 11.9467 39.3029 11.74 38.5563 11.74C37.7029 11.74 37.0163 12.02 36.4963 12.58C35.9896 13.14 35.7363 13.9533 35.7363 15.02V20H33.6763ZM49.4075 20C48.8075 20 48.3275 19.82 47.9675 19.46C47.6208 19.1 47.4475 18.62 47.4475 18.02V11.88H44.7275V10.14H47.4475V6.88H49.5075V10.14H52.4475V11.88H49.5075V17.66C49.5075 18.06 49.6942 18.26 50.0675 18.26H52.1275V20H49.4075ZM57.9081 20.28C57.2015 20.28 56.5681 20.16 56.0081 19.92C55.4615 19.68 55.0215 19.3267 54.6881 18.86C54.3681 18.3933 54.2081 17.8267 54.2081 17.16C54.2081 16.48 54.3681 15.92 54.6881 15.48C55.0215 15.0267 55.4681 14.6867 56.0281 14.46C56.6015 14.2333 57.2481 14.12 57.9681 14.12H60.9681V13.48C60.9681 12.9067 60.7948 12.4467 60.4481 12.1C60.1015 11.7533 59.5681 11.58 58.8481 11.58C58.1415 11.58 57.6015 11.7467 57.2281 12.08C56.8548 12.4133 56.6081 12.8467 56.4881 13.38L54.5681 12.76C54.7281 12.2267 54.9815 11.7467 55.3281 11.32C55.6881 10.88 56.1615 10.5267 56.7481 10.26C57.3348 9.99333 58.0415 9.86 58.8681 9.86C60.1481 9.86 61.1548 10.1867 61.8881 10.84C62.6215 11.4933 62.9881 12.42 62.9881 13.62V17.68C62.9881 18.08 63.1748 18.28 63.5481 18.28H64.3881V20H62.8481C62.3815 20 62.0015 19.88 61.7081 19.64C61.4148 19.4 61.2681 19.0733 61.2681 18.66V18.6H60.9681C60.8615 18.8 60.7015 19.0333 60.4881 19.3C60.2748 19.5667 59.9615 19.8 59.5481 20C59.1348 20.1867 58.5881 20.28 57.9081 20.28ZM58.2081 18.58C59.0348 18.58 59.7015 18.3467 60.2081 17.88C60.7148 17.4 60.9681 16.7467 60.9681 15.92V15.72H58.0881C57.5415 15.72 57.1015 15.84 56.7681 16.08C56.4348 16.3067 56.2681 16.6467 56.2681 17.1C56.2681 17.5533 56.4415 17.9133 56.7881 18.18C57.1348 18.4467 57.6081 18.58 58.2081 18.58ZM70.7367 20.28C69.7901 20.28 68.9301 20.08 68.1567 19.68C67.3967 19.28 66.7901 18.7 66.3367 17.94C65.8967 17.18 65.6767 16.2667 65.6767 15.2V14.94C65.6767 13.8733 65.8967 12.9667 66.3367 12.22C66.7901 11.46 67.3967 10.88 68.1567 10.48C68.9301 10.0667 69.7901 9.86 70.7367 9.86C71.6834 9.86 72.4901 10.0333 73.1567 10.38C73.8234 10.7267 74.3567 11.1867 74.7567 11.76C75.1701 12.3333 75.4367 12.9667 75.5567 13.66L73.5567 14.08C73.4901 13.64 73.3501 13.24 73.1367 12.88C72.9234 12.52 72.6234 12.2333 72.2367 12.02C71.8501 11.8067 71.3634 11.7 70.7767 11.7C70.2034 11.7 69.6834 11.8333 69.2167 12.1C68.7634 12.3533 68.4034 12.7267 68.1367 13.22C67.8701 13.7 67.7367 14.2867 67.7367 14.98V15.16C67.7367 15.8533 67.8701 16.4467 68.1367 16.94C68.4034 17.4333 68.7634 17.8067 69.2167 18.06C69.6834 18.3133 70.2034 18.44 70.7767 18.44C71.6434 18.44 72.3034 18.22 72.7567 17.78C73.2101 17.3267 73.4967 16.7533 73.6167 16.06L75.6167 16.52C75.4567 17.2 75.1701 17.8267 74.7567 18.4C74.3567 18.9733 73.8234 19.4333 73.1567 19.78C72.4901 20.1133 71.6834 20.28 70.7367 20.28ZM81.3216 20C80.7216 20 80.2416 19.82 79.8816 19.46C79.5349 19.1 79.3616 18.62 79.3616 18.02V11.88H76.6416V10.14H79.3616V6.88H81.4216V10.14H84.3616V11.88H81.4216V17.66C81.4216 18.06 81.6082 18.26 81.9816 18.26H84.0416V20H81.3216ZM95.6594 20.18C94.9127 20.18 94.246 20.0133 93.6594 19.68C93.0727 19.3467 92.6127 18.8733 92.2794 18.26C91.946 17.6467 91.7794 16.9133 91.7794 16.06V10.14H93.8394V15.92C93.8394 16.7733 94.0527 17.4067 94.4794 17.82C94.906 18.22 95.4994 18.42 96.2594 18.42C97.0994 18.42 97.7727 18.14 98.2794 17.58C98.7994 17.0067 99.0594 16.1867 99.0594 15.12V10.14H101.119V20H99.0994V18.52H98.7794C98.5927 18.92 98.2594 19.3 97.7794 19.66C97.2994 20.0067 96.5927 20.18 95.6594 20.18ZM108.205 20.28C106.951 20.28 105.911 20 105.085 19.44C104.258 18.88 103.751 18.0333 103.565 16.9L105.485 16.44C105.591 16.9867 105.771 17.42 106.025 17.74C106.278 18.06 106.591 18.2867 106.965 18.42C107.351 18.5533 107.765 18.62 108.205 18.62C108.858 18.62 109.358 18.4933 109.705 18.24C110.065 17.9867 110.245 17.66 110.245 17.26C110.245 16.86 110.078 16.5667 109.745 16.38C109.411 16.1933 108.918 16.04 108.265 15.92L107.585 15.8C106.918 15.68 106.311 15.5067 105.765 15.28C105.218 15.0533 104.785 14.74 104.465 14.34C104.145 13.94 103.985 13.4267 103.985 12.8C103.985 11.8667 104.331 11.1467 105.025 10.64C105.718 10.12 106.638 9.86 107.785 9.86C108.891 9.86 109.798 10.1133 110.505 10.62C111.225 11.1133 111.691 11.7867 111.905 12.64L109.985 13.18C109.865 12.58 109.611 12.16 109.225 11.92C108.838 11.6667 108.358 11.54 107.785 11.54C107.225 11.54 106.785 11.6467 106.465 11.86C106.145 12.06 105.985 12.3467 105.985 12.72C105.985 13.12 106.138 13.4133 106.445 13.6C106.765 13.7867 107.191 13.9267 107.725 14.02L108.425 14.14C109.131 14.26 109.778 14.4267 110.365 14.64C110.951 14.8533 111.411 15.16 111.745 15.56C112.091 15.96 112.265 16.4933 112.265 17.16C112.265 18.1467 111.898 18.9133 111.165 19.46C110.431 20.0067 109.445 20.28 108.205 20.28ZM115.912 20.28C115.446 20.28 115.052 20.1267 114.732 19.82C114.426 19.5133 114.272 19.12 114.272 18.64C114.272 18.16 114.426 17.7733 114.732 17.48C115.052 17.1733 115.446 17.02 115.912 17.02C116.379 17.02 116.766 17.1733 117.072 17.48C117.392 17.7867 117.552 18.1733 117.552 18.64C117.552 19.12 117.392 19.5133 117.072 19.82C116.766 20.1267 116.379 20.28 115.912 20.28ZM115.912 13.14C115.446 13.14 115.052 12.9867 114.732 12.68C114.426 12.3733 114.272 11.98 114.272 11.5C114.272 11.02 114.426 10.6333 114.732 10.34C115.052 10.0333 115.446 9.88 115.912 9.88C116.379 9.88 116.766 10.0333 117.072 10.34C117.392 10.6467 117.552 11.0333 117.552 11.5C117.552 11.98 117.392 12.3733 117.072 12.68C116.766 12.9867 116.379 13.14 115.912 13.14Z" fill="black"/>
</svg>
