<svg width="140" height="24" viewBox="0 0 140 24" fill="none" xmlns="http://www.w3.org/2000/svg">
<g id="Positivus">
<path d="M0.109863 23.4723V0.916748H9.22724C10.6266 0.916748 11.8728 1.19601 12.966 1.75453C14.0811 2.29156 14.9447 3.0649 15.5569 4.07453C16.191 5.06267 16.508 6.2549 16.508 7.65119V8.07008C16.508 9.46638 16.1801 10.6693 15.5241 11.679C14.8901 12.6886 14.0264 13.4619 12.9332 13.999C11.84 14.536 10.6047 14.8045 9.22724 14.8045H3.65187V23.4723H0.109863ZM3.65187 11.6467H8.86648C10.1127 11.6467 11.1076 11.3245 11.8509 10.6801C12.5943 10.0356 12.966 9.1549 12.966 8.03786V7.71564C12.966 6.57712 12.5943 5.68564 11.8509 5.04119C11.1076 4.39675 10.1127 4.07453 8.86648 4.07453H3.65187V11.6467Z" fill="white"/>
<path d="M27.0969 23.9234C25.4789 23.9234 24.0359 23.6012 22.7678 22.9568C21.5215 22.2908 20.5376 21.3456 19.8161 20.1212C19.0946 18.8967 18.7338 17.4468 18.7338 15.7712V15.2879C18.7338 13.6123 19.0946 12.173 19.8161 10.9701C20.5376 9.74564 21.5215 8.80045 22.7678 8.13453C24.0359 7.4686 25.4789 7.13564 27.0969 7.13564C28.7148 7.13564 30.1579 7.4686 31.426 8.13453C32.6941 8.80045 33.6889 9.74564 34.4105 10.9701C35.132 12.173 35.4927 13.6123 35.4927 15.2879V15.7712C35.4927 17.4468 35.132 18.8967 34.4105 20.1212C33.6889 21.3456 32.6941 22.2908 31.426 22.9568C30.1579 23.6012 28.7148 23.9234 27.0969 23.9234ZM27.0969 20.959C28.5836 20.959 29.7862 20.4971 30.7045 19.5734C31.6446 18.6282 32.1147 17.3286 32.1147 15.6745V15.3845C32.1147 13.7305 31.6556 12.4416 30.7373 11.5179C29.819 10.5727 28.6055 10.1001 27.0969 10.1001C25.632 10.1001 24.4294 10.5727 23.4893 11.5179C22.571 12.4416 22.1118 13.7305 22.1118 15.3845V15.6745C22.1118 17.3286 22.571 18.6282 23.4893 19.5734C24.4294 20.4971 25.632 20.959 27.0969 20.959Z" fill="white"/>
<path d="M46.3232 23.9234C44.268 23.9234 42.5626 23.4723 41.207 22.5701C39.8514 21.6679 39.0206 20.3038 38.7145 18.4779L41.8629 17.7367C42.0378 18.6175 42.333 19.3156 42.7484 19.8312C43.1638 20.3468 43.6776 20.7119 44.2898 20.9268C44.9239 21.1416 45.6017 21.249 46.3232 21.249C47.3946 21.249 48.2145 21.0449 48.7829 20.6367C49.3733 20.2286 49.6684 19.7023 49.6684 19.0579C49.6684 18.4134 49.3951 17.9408 48.8485 17.6401C48.3019 17.3393 47.493 17.0923 46.4216 16.899L45.3065 16.7056C44.2133 16.5123 43.2185 16.233 42.3221 15.8679C41.4256 15.5027 40.715 14.9979 40.1903 14.3534C39.6656 13.709 39.4032 12.8819 39.4032 11.8723C39.4032 10.3686 39.9717 9.2086 41.1086 8.3923C42.2455 7.55453 43.7542 7.13564 45.6345 7.13564C47.4492 7.13564 48.936 7.54379 50.0948 8.36008C51.2755 9.1549 52.0407 10.2397 52.3905 11.6145L49.2421 12.4845C49.0453 11.5179 48.6299 10.8412 47.9958 10.4545C47.3618 10.0464 46.5747 9.84231 45.6345 9.84231C44.7162 9.84231 43.9947 10.0142 43.4699 10.3579C42.9452 10.6801 42.6828 11.1419 42.6828 11.7434C42.6828 12.3879 42.9343 12.8605 43.4371 13.1612C43.9619 13.4619 44.6615 13.6875 45.5361 13.8379L46.684 14.0312C47.8428 14.2245 48.9032 14.493 49.8652 14.8367C50.8272 15.1805 51.5816 15.6745 52.1282 16.319C52.6966 16.9634 52.9809 17.8227 52.9809 18.8967C52.9809 20.4864 52.3796 21.7216 51.1771 22.6023C49.9745 23.483 48.3566 23.9234 46.3232 23.9234Z" fill="white"/>
<path d="M56.9292 23.4723V7.58675H60.3073V23.4723H56.9292ZM58.6347 5.42786C57.9787 5.42786 57.4212 5.22379 56.962 4.81564C56.5248 4.38601 56.3061 3.83823 56.3061 3.1723C56.3061 2.50638 56.5248 1.96934 56.962 1.56119C57.4212 1.13156 57.9787 0.916748 58.6347 0.916748C59.3124 0.916748 59.87 1.13156 60.3073 1.56119C60.7446 1.96934 60.9632 2.50638 60.9632 3.1723C60.9632 3.83823 60.7446 4.38601 60.3073 4.81564C59.87 5.22379 59.3124 5.42786 58.6347 5.42786Z" fill="white"/>
<path d="M71.3878 23.4723C70.4039 23.4723 69.6168 23.1823 69.0265 22.6023C68.458 22.0223 68.1738 21.249 68.1738 20.2823V10.3901H63.7135V7.58675H68.1738V2.33453H71.5518V7.58675H76.3729V10.3901H71.5518V19.7023C71.5518 20.3468 71.8579 20.669 72.4701 20.669H75.8481V23.4723H71.3878Z" fill="white"/>
<path d="M80.3415 23.4723V7.58675H83.7195V23.4723H80.3415ZM82.0469 5.42786C81.3909 5.42786 80.8334 5.22379 80.3743 4.81564C79.937 4.38601 79.7183 3.83823 79.7183 3.1723C79.7183 2.50638 79.937 1.96934 80.3743 1.56119C80.8334 1.13156 81.3909 0.916748 82.0469 0.916748C82.7247 0.916748 83.2822 1.13156 83.7195 1.56119C84.1568 1.96934 84.3754 2.50638 84.3754 3.1723C84.3754 3.83823 84.1568 4.38601 83.7195 4.81564C83.2822 5.22379 82.7247 5.42786 82.0469 5.42786Z" fill="white"/>
<path d="M92.4715 23.4723L87.0273 7.58675H90.6021L94.8984 21.0234H95.4232L99.7195 7.58675H103.294L97.8501 23.4723H92.4715Z" fill="white"/>
<path d="M112.771 23.7623C111.546 23.7623 110.453 23.4938 109.491 22.9568C108.529 22.4197 107.775 21.6571 107.228 20.669C106.681 19.6808 106.408 18.4993 106.408 17.1245V7.58675H109.786V16.899C109.786 18.2738 110.136 19.2942 110.836 19.9601C111.535 20.6045 112.508 20.9268 113.755 20.9268C115.132 20.9268 116.236 20.4756 117.067 19.5734C117.92 18.6497 118.346 17.3286 118.346 15.6101V7.58675H121.724V23.4723H118.412V21.0879H117.887C117.581 21.7323 117.034 22.3445 116.247 22.9245C115.46 23.483 114.301 23.7623 112.771 23.7623Z" fill="white"/>
<path d="M133.342 23.9234C131.287 23.9234 129.582 23.4723 128.226 22.5701C126.871 21.6679 126.04 20.3038 125.734 18.4779L128.882 17.7367C129.057 18.6175 129.352 19.3156 129.768 19.8312C130.183 20.3468 130.697 20.7119 131.309 20.9268C131.943 21.1416 132.621 21.249 133.342 21.249C134.414 21.249 135.234 21.0449 135.802 20.6367C136.392 20.2286 136.688 19.7023 136.688 19.0579C136.688 18.4134 136.414 17.9408 135.868 17.6401C135.321 17.3393 134.512 17.0923 133.441 16.899L132.326 16.7056C131.232 16.5123 130.238 16.233 129.341 15.8679C128.445 15.5027 127.734 14.9979 127.209 14.3534C126.685 13.709 126.422 12.8819 126.422 11.8723C126.422 10.3686 126.991 9.2086 128.128 8.3923C129.265 7.55453 130.773 7.13564 132.654 7.13564C134.468 7.13564 135.955 7.54379 137.114 8.36008C138.295 9.1549 139.06 10.2397 139.41 11.6145L136.261 12.4845C136.064 11.5179 135.649 10.8412 135.015 10.4545C134.381 10.0464 133.594 9.84231 132.654 9.84231C131.735 9.84231 131.014 10.0142 130.489 10.3579C129.964 10.6801 129.702 11.1419 129.702 11.7434C129.702 12.3879 129.953 12.8605 130.456 13.1612C130.981 13.4619 131.681 13.6875 132.555 13.8379L133.703 14.0312C134.862 14.2245 135.922 14.493 136.884 14.8367C137.846 15.1805 138.601 15.6745 139.147 16.319C139.716 16.9634 140 17.8227 140 18.8967C140 20.4864 139.399 21.7216 138.196 22.6023C136.994 23.483 135.376 23.9234 133.342 23.9234Z" fill="white"/>
</g>
</svg>
